<?xml version="1.0" standalone="no"?>
<svg xmlns:xlink="http://www.w3.org/1999/xlink" id="wave" style="transform:rotate(0deg); transition: 0.3s" viewBox="0 0 1440 490" version="1.1" xmlns="http://www.w3.org/2000/svg"><defs><linearGradient id="sw-gradient-0" x1="0" x2="0" y1="1" y2="0"><stop stop-color="rgba(243, 106, 62, 1)" offset="0%"/><stop stop-color="rgba(255, 179, 11, 1)" offset="100%"/></linearGradient></defs><path style="transform:translate(0, 0px); opacity:1" fill="url(#sw-gradient-0)" d="M0,98L80,81.7C160,65,320,33,480,40.8C640,49,800,98,960,138.8C1120,180,1280,212,1440,212.3C1600,212,1760,180,1920,196C2080,212,2240,278,2400,253.2C2560,229,2720,114,2880,81.7C3040,49,3200,98,3360,122.5C3520,147,3680,147,3840,122.5C4000,98,4160,49,4320,57.2C4480,65,4640,131,4800,163.3C4960,196,5120,196,5280,220.5C5440,245,5600,294,5760,326.7C5920,359,6080,376,6240,392C6400,408,6560,425,6720,359.3C6880,294,7040,147,7200,147C7360,147,7520,294,7680,343C7840,392,8000,343,8160,269.5C8320,196,8480,98,8640,81.7C8800,65,8960,131,9120,147C9280,163,9440,131,9600,130.7C9760,131,9920,163,10080,204.2C10240,245,10400,294,10560,310.3C10720,327,10880,310,11040,302.2C11200,294,11360,294,11440,294L11520,294L11520,490L11440,490C11360,490,11200,490,11040,490C10880,490,10720,490,10560,490C10400,490,10240,490,10080,490C9920,490,9760,490,9600,490C9440,490,9280,490,9120,490C8960,490,8800,490,8640,490C8480,490,8320,490,8160,490C8000,490,7840,490,7680,490C7520,490,7360,490,7200,490C7040,490,6880,490,6720,490C6560,490,6400,490,6240,490C6080,490,5920,490,5760,490C5600,490,5440,490,5280,490C5120,490,4960,490,4800,490C4640,490,4480,490,4320,490C4160,490,4000,490,3840,490C3680,490,3520,490,3360,490C3200,490,3040,490,2880,490C2720,490,2560,490,2400,490C2240,490,2080,490,1920,490C1760,490,1600,490,1440,490C1280,490,1120,490,960,490C800,490,640,490,480,490C320,490,160,490,80,490L0,490Z"/></svg>